<?xml version="1.0" encoding="UTF-8"?>
<svg width="100px" height="83px" viewBox="0 0 100 83" version="1.1" xmlns="http://www.w3.org/2000/svg" xmlns:xlink="http://www.w3.org/1999/xlink">
    <!-- Generator: Sketch 54.1 (76490) - https://sketchapp.com -->
    <title>user-image-with-black-background</title>
    <desc>Created with Sketch.</desc>
    <g id="Page-2" stroke="none" stroke-width="1" fill="none" fill-rule="evenodd">
        <g id="ارتقا-به-سطح-نقره‌ای-۰۱" transform="translate(-754.000000, -396.000000)" fill="#4A4A4A" fill-rule="nonzero">
            <g id="user-image-with-black-background" transform="translate(754.000000, 396.000000)">
                <path d="M49.9266026,0.106089744 C22.3525641,0.106089744 0,22.4586538 0,50.0326923 C0,62.0480769 4.24679487,73.0721154 11.3185897,81.686859 C12.4096154,72.9509615 21.1349359,65.5625 33.3698718,62.0634615 C37.8397436,66.2282051 43.6134615,68.7551282 49.9262821,68.7551282 C56.0907051,68.7551282 61.7512821,66.3554487 66.175641,62.3653846 C78.5163462,66.1701923 87.0541667,73.9903846 87.3349359,83.0801282 C95.1182692,74.275 99.8528846,62.7099359 99.8528846,50.0326923 C99.8528846,22.4586538 77.5003205,0.106089744 49.9266026,0.106089744 Z M49.9266026,62.8426282 C46.7394231,62.8426282 43.7362179,61.9669872 41.0695513,60.4503205 C34.6432692,56.7935897 30.2185897,49.3105769 30.2185897,40.6711538 C30.2185897,28.4458333 39.0592949,18.499359 49.9266026,18.499359 C60.7948718,18.499359 69.6346154,28.4458333 69.6346154,40.6711538 C69.6346154,49.4432692 65.0714744,57.0185897 58.4852564,60.611859 C55.8907051,62.0266026 52.9955128,62.8426282 49.9266026,62.8426282 Z" id="Shape"></path>
            </g>
        </g>
    </g>
</svg>