<?xml version="1.0" encoding="utf-8"?>
<!-- Generator: Adobe Illustrator 21.0.0, SVG Export Plug-In . SVG Version: 6.00 Build 0)  -->
<svg version="1.1" id="Layer_1" xmlns="http://www.w3.org/2000/svg" xmlns:xlink="http://www.w3.org/1999/xlink" x="0px" y="0px"
	 viewBox="0 0 500 400" style="enable-background:new 0 0 500 400;" xml:space="preserve">
<style type="text/css">
	.st0{fill:#FF7058;}
	.st1{fill:#FFD15C;}
	.st2{fill:#F1543F;}
	.st3{fill:#F8B64C;}
	.st4{fill:#FFFFFF;}
	.st5{fill:#FFC952;}
	.st6{fill:#303842;}
	.st7{fill:none;stroke:#303842;stroke-miterlimit:10;}
	.st8{fill:none;stroke:#303842;stroke-width:6;stroke-miterlimit:10;}
	.st9{fill:#344A5E;}
	.st10{fill:#415A6B;}
</style>
<g>
	<polygon class="st0" points="140.6,375.3 113.3,375.3 117.9,365.4 122,356 131.9,356 135.9,365.4 	"/>
	<path class="st1" d="M158,375.3H95.9c-3.4,0-6.2,2.8-6.2,6.2v20.2h74.2v-20.2C164.2,378.1,161.4,375.3,158,375.3z"/>
	<path class="st2" d="M135.9,365.4c-2.5,1.2-5,2.5-7.4,3.4l-1.6,0.3l-1.6-0.6c-2.5-0.9-5-2.2-7.4-3.4l4-9.3h9.6L135.9,365.4z"/>
	<g>
		<path class="st3" d="M52.5,269.8v12.7c0,31,19.2,57.7,46.2,68.9c8.7,3.7,18.3,5.6,28.2,5.6s19.6-1.9,28.2-5.6
			c27-11.2,46.2-37.9,46.2-68.9v-12.7H52.5z M189,282.5c0,14.9-5.3,28.6-14.3,39.4c-11.5,13.7-28.6,22.7-47.8,22.7
			s-36.3-8.7-47.8-22.7c-8.7-10.6-14.3-24.5-14.3-39.4v-0.3h123.8v0.3H189L189,282.5z"/>
		<path class="st3" d="M175.4,252.7H78.5c-2.2,0-3.7,1.9-3.7,3.7c0,2.2,1.6,4,3.7,4h96.8c2.2,0,3.7-1.9,3.7-3.7
			C179.1,254.6,177.5,252.7,175.4,252.7z"/>
	</g>
	<path class="st1" d="M175.4,260.5V294c0,31-19.2,59.3-48.4,70.5c-29.2-11.5-48.4-39.4-48.4-70.8v-33.2H175.4z"/>
	<polygon class="st4" points="126.9,274.4 133.5,294.3 154.3,294.3 137.5,306.7 143.7,326.6 126.9,314.1 110.2,326.6 116.4,306.7 
		99.6,294.3 120.4,294.3 	"/>
	<rect x="78.5" y="260.5" class="st5" width="96.5" height="4.7"/>
</g>
<g>
	<g>
		<path class="st6" d="M156.6,85.4c-1.5-3.5-3.7-6.5-6.5-9.1c-5.7-5.4-13.2-8-21-7.5c-14.3,0.9-25.8,12.8-26.2,27.1
			c-0.3,10.6,5.2,20.4,14.5,25.5c2.3,1.3,3.8,3.8,3.8,6.5v9.3c0,2.7,2.2,4.8,4.8,4.8h0.1v0.1c0,2.7,2.2,4.8,4.8,4.8
			c2.7,0,4.8-2.2,4.8-4.8v-0.1h0.1c2.7,0,4.8-2.2,4.8-4.8v-9.3c0-2.7,1.5-5.2,3.8-6.5c9-4.9,14.5-14.4,14.5-24.6
			C159,92.8,158.2,88.9,156.6,85.4z M133.4,141.9c0,1.4-1.1,2.5-2.5,2.5c-1.4,0-2.5-1.1-2.5-2.5v-0.1L133.4,141.9L133.4,141.9z
			 M138.3,137c0,1.4-1.1,2.5-2.5,2.5H126c-1.4,0-2.5-1.1-2.5-2.5V137L138.3,137L138.3,137z M138.3,134.7h-14.8v-2.6h14.8V134.7z
			 M138.3,127.7v2.1h-14.8v-2c0-0.2,0-0.4,0-0.5h3.8l0,0c0,0,0,0,0,0h7.3c0,0,0,0,0,0c0,0,0,0,0,0h3.8
			C138.3,127.4,138.3,127.6,138.3,127.7z M133.7,124.9h-5.5 M125.8,124.9h-2.7c-0.2-0.7-0.6-1.4-0.9-2.1c-0.4-0.7-0.1-0.2-0.9-1.3
			c-0.7-0.6-1.2-1.1-1.9-1.7c-0.3-0.2-0.5-0.4-0.8-0.5c-8.5-4.7-13.6-13.7-13.3-23.4c0.4-13.1,11-24.1,24.1-24.9
			c0.6,0,1.1-0.1,1.7-0.1c6.6,0,12.8,2.4,17.6,7c5.2,4.9,8.1,11.6,8.1,18.8c0,9.4-5.1,18-13.3,22.6c-2.2,1.2-3.9,3.3-4.6,5.6H136
			l0.1-0.6c-0.6,0.1-1.3,0.2-2,0.2"/>
	</g>
	<path class="st6" d="M135.1,107.2h-8.2c0-7.6,4.4-10.2,7.4-11.7c1.1-0.5,1.9-1,2.5-1.5c1.4-1.3,0.8-3.1,0.5-3.6
		c-0.8-1.8-2.7-3.6-6.3-3.6c-5.7,0-6.8,4.8-6.8,5.8l-8.2-1c0.5-4.3,4.6-12.5,15-12.5c6.3,0,11.7,3.3,13.9,8.1
		c1.9,4.3,1.1,8.9-2.2,11.9c-1.4,1.3-3,2-4.4,2.8C135.9,103.4,135.1,104.7,135.1,107.2z"/>
	<path class="st6" d="M136.4,114.8c0,2.8-2.4,5.1-5.4,5.1s-5.4-2.3-5.4-5.1s2.4-5.1,5.4-5.1S136.4,112,136.4,114.8z"/>
</g>
<circle class="st7" cx="131.5" cy="154.3" r="6"/>
<g>
	<path class="st7" d="M350.6,387.2c5.1,0,0.9,0,6,0"/>
	<path class="st7" d="M338,387.2c1.9,0,3.8,0,5.7,0"/>
	<path class="st7" d="M324.2,387.2c1.9,0,3.8,0,5.7,0"/>
	<path class="st7" d="M311.6,387.2c1.9,0,3.8,0,5.7,0"/>
	<path class="st7" d="M299,387.2c1.9,0,3.8,0,5.7,0"/>
	<path class="st7" d="M284.6,387.2c2.6,0,5.2,0,7.8,0"/>
	<path class="st7" d="M270.5,387.2c2.7,0,5.5,0,8.2,0"/>
</g>
<g>
	<path class="st7" d="M261,387.2c5.1,0,0.9,0,6,0"/>
	<path class="st7" d="M248.4,387.2c1.9,0,3.8,0,5.7,0"/>
	<path class="st7" d="M234.6,387.2c1.9,0,3.8,0,5.7,0"/>
	<path class="st7" d="M222,387.2c1.9,0,3.8,0,5.7,0"/>
	<path class="st7" d="M209.3,387.2c1.9,0,3.8,0,5.7,0"/>
	<path class="st7" d="M194.9,387.2c2.6,0,5.2,0,7.8,0"/>
	<path class="st7" d="M180.9,387.2c2.7,0,5.5,0,8.2,0"/>
	<path class="st7" d="M169.3,387.2c2.7,0,5.5,0,8.2,0"/>
</g>
<g>
	<path class="st7" d="M231.1,159.8c5.1,0,0.9,0,6,0"/>
	<path class="st7" d="M218.5,159.8c1.9,0,3.8,0,5.7,0"/>
	<path class="st7" d="M204.7,159.8c1.9,0,3.8,0,5.7,0"/>
	<path class="st7" d="M192.1,159.8c1.9,0,3.8,0,5.7,0"/>
	<path class="st7" d="M179.4,159.8c1.9,0,3.8,0,5.7,0"/>
	<path class="st7" d="M165.1,159.7c2.6,0,5.2,0,7.8,0"/>
	<path class="st7" d="M151,159.7c2.7,0,5.5,0,8.2,0"/>
	<path class="st7" d="M139.4,159.7c2.7,0,5.5,0,8.2,0"/>
</g>
<path class="st8" d="M427.8,230.3H250.5c-6.6,0-12-5.4-12-12V99.6c0-6.6,5.4-12,12-12h177.2c6.6,0,12,5.4,12,12v118.8
	C439.8,224.9,434.4,230.3,427.8,230.3z"/>
<g>
	<path class="st7" d="M410.6,337.6c0.1,8.5,0.2,12,0.1,10.6"/>
	<path class="st7" d="M410.5,324.9c0,3.2,0,6.4,0,9.6"/>
	<path class="st7" d="M410.4,309.8c0,3.5,0,7,0,10.4"/>
	<path class="st7" d="M410.4,293.6c0,3.9,0,7.7,0,11.6"/>
	<path class="st7" d="M410.4,278.5c0,3.5,0,7,0,10.4"/>
	<path class="st7" d="M410.5,263.4c0,3.1,0,6.2-0.1,9.3"/>
	<path class="st7" d="M410.7,247.6c0,3.4-0.1,6.8-0.1,10.2"/>
	<path class="st7" d="M410.7,232c0,3.8,0,7.6,0,11.4"/>
</g>
<g>
	<path class="st7" d="M403.5,370.2c-2.1,2.4-4.4,4.6-7,6.5"/>
	<path class="st7" d="M370.7,386.6c-2.8,0.4-5.7,0.5-8.5,0.5"/>
	<path class="st7" d="M380.1,384.7c-1.7,0.5-3.5,0.9-5.2,1.3"/>
	<path class="st7" d="M392.2,379.6c-2.3,1.3-4.8,2.5-7.3,3.5"/>
	<path class="st7" d="M409.8,359.2c1.1-5.1,1.2-0.7-2.4,7.1"/>
</g>
<rect x="296.8" y="65.6" class="st4" width="82.6" height="39.2"/>
<g>
	<path class="st1" d="M348.5,79.5c1.3-4.3,3.9-8.2,7.3-11.3c6.5-5.4,10.5-13.6,10.5-22.7c0-16.9-14-30.8-31.2-29.9
		c-15.3,0.6-27.7,13.6-28.2,29c-0.2,9.5,3.9,18,10.5,23.6c3.7,3,6.2,6.9,7.5,11.3H348.5L348.5,79.5z"/>
	<path class="st4" d="M333.9,79.9h1.9l-8.6-32.3c0.2,0,0.4,0,0.6,0c1.1,0,2.2-0.4,3-1.3c0.4-0.4,0.9-0.6,1.5-0.6
		c0.6,0,1.1,0.2,1.5,0.6c1.5,1.7,4.1,1.7,5.6,0c0.4-0.4,0.9-0.6,1.5-0.6c0.4,0,1.1,0.2,1.5,0.6c0.9,0.9,1.7,1.3,3,1.3
		c0.2,0,0.4,0,0.6,0l-8.4,32.3h1.9l8.8-33.8c0-0.4,0-0.9-0.4-1.1c-0.4-0.2-0.9,0-1.1,0.2c-0.4,0.4-0.9,0.6-1.3,0.6
		c-0.6,0-1.1-0.2-1.7-0.6c-0.9-0.9-1.7-1.3-2.8-1.3s-1.9,0.4-2.8,1.3c-0.9,0.9-2.2,0.9-3,0c-0.6-0.9-1.7-1.3-2.8-1.3l0,0
		c-1.1,0-2.2,0.4-2.8,1.3c-0.4,0.4-1.1,0.6-1.7,0.6c-0.4,0-1.1-0.2-1.3-0.6c-0.2-0.2-0.6-0.4-1.1-0.2c-0.4,0.2-0.6,0.6-0.4,1.1
		L333.9,79.9z"/>
	<g>
		<path class="st9" d="M330.1,99.4c1.1,2.6,3.7,4.5,6.7,4.5s5.6-1.9,6.7-4.5H330.1z"/>
		<path class="st9" d="M344.7,99.6H329c-2.2,0-3.9-1.7-3.9-3.9V79.3h23.4v16.5C348.5,97.9,346.8,99.6,344.7,99.6z"/>
	</g>
	<g>
		<path class="st10" d="M348.3,87.5h-23.2c-1.3,0-2.4-1.1-2.4-2.4l0,0c0-1.3,1.1-2.4,2.4-2.4h23.2c1.3,0,2.4,1.1,2.4,2.4l0,0
			C350.7,86.4,349.6,87.5,348.3,87.5z"/>
		<path class="st10" d="M348.3,95.1h-23.2c-1.3,0-2.4-1.1-2.4-2.4l0,0c0-1.3,1.1-2.4,2.4-2.4h23.2c1.3,0,2.4,1.1,2.4,2.4l0,0
			C350.7,94,349.6,95.1,348.3,95.1z"/>
	</g>
	<g>
		<path class="st1" d="M336.7,0c-1.1,0-2.2,0.9-2.2,2.2v7.4c0,1.1,0.9,2.2,2.2,2.2c1.3,0,2.2-0.9,2.2-2.2V2.2
			C338.9,0.9,337.8,0,336.7,0z"/>
		<path class="st1" d="M307.9,13.2c-0.9-0.9-2.2-0.9-3,0s-0.9,2.2,0,3l5.2,5.2c0.9,0.9,2.2,0.9,3,0c0.9-0.9,0.9-2.2,0-3L307.9,13.2z
			"/>
		<path class="st1" d="M301.2,43.1h-7.3c-1.1,0-2.2,0.9-2.2,2.2l0,0c0,1.1,0.9,2.2,2.2,2.2h7.3c1.1,0,2.2-0.9,2.2-2.2l0,0
			C303.4,44.2,302.3,43.1,301.2,43.1z"/>
		<path class="st1" d="M310.1,69.1l-5.2,5.2c-0.9,0.9-0.9,2.2,0,3c0.9,0.9,2.2,0.9,3,0l5.2-5.2c0.9-0.9,0.9-2.2,0-3
			C312.2,68.2,310.9,68.2,310.1,69.1z"/>
		<path class="st1" d="M363.4,69.1c-0.9-0.9-2.2-0.9-3,0c-0.9,0.9-0.9,2.2,0,3l5.2,5.2c0.9,0.9,2.2,0.9,3,0c0.9-0.9,0.9-2.2,0-3
			L363.4,69.1z"/>
		<path class="st1" d="M379.5,43.1h-7.3c-1.1,0-2.2,0.9-2.2,2.2l0,0c0,1.1,0.9,2.2,2.2,2.2h7.3c1.1,0,2.2-0.9,2.2-2.2l0,0
			C381.7,44.2,380.8,43.1,379.5,43.1z"/>
		<path class="st1" d="M365.5,13.2l-5.2,5.2c-0.9,0.9-0.9,2.2,0,3c0.9,0.9,2.2,0.9,3,0l5.2-5.2c0.9-0.9,0.9-2.2,0-3
			C367.7,12.3,366.4,12.3,365.5,13.2z"/>
	</g>
</g>
<g>
	<g>
		<rect x="385.4" y="169.7" class="st7" width="29.2" height="45.3"/>
		<polygon class="st6" points="410.1,186.4 390,186.2 390,175.7 410.1,175.9 		"/>
		<line class="st7" x1="390" y1="193.2" x2="410.1" y2="193.2"/>
		<line class="st7" x1="390" y1="197.7" x2="410.1" y2="197.7"/>
		<line class="st7" x1="390" y1="202.2" x2="410.1" y2="202.2"/>
		<line class="st7" x1="390" y1="206.7" x2="399.5" y2="206.7"/>
		<path class="st7" d="M407.8,198.2"/>
		<path class="st7" d="M390,198.2"/>
		<path class="st7" d="M407.8,194.9"/>
		<path class="st7" d="M390,194.9"/>
	</g>
	<g>
		<rect x="344.4" y="169.7" class="st7" width="29.2" height="45.3"/>
		<polygon class="st6" points="369.1,186.4 349,186.2 349,175.7 369.1,175.9 		"/>
		<line class="st7" x1="349" y1="193.2" x2="369.1" y2="193.2"/>
		<line class="st7" x1="349" y1="197.7" x2="369.1" y2="197.7"/>
		<line class="st7" x1="349" y1="202.2" x2="369.1" y2="202.2"/>
		<line class="st7" x1="349" y1="206.7" x2="358.6" y2="206.7"/>
		<path class="st7" d="M366.9,198.2"/>
		<path class="st7" d="M349,198.2"/>
		<path class="st7" d="M366.9,194.9"/>
		<path class="st7" d="M349,194.9"/>
	</g>
	<g>
		<rect x="303.5" y="169.7" class="st7" width="29.2" height="45.3"/>
		<polygon class="st6" points="328.2,186.4 308.1,186.2 308.1,175.7 328.2,175.9 		"/>
		<line class="st7" x1="308.1" y1="193.2" x2="328.2" y2="193.2"/>
		<line class="st7" x1="308.1" y1="197.7" x2="328.2" y2="197.7"/>
		<line class="st7" x1="308.1" y1="202.2" x2="328.2" y2="202.2"/>
		<line class="st7" x1="308.1" y1="206.7" x2="317.6" y2="206.7"/>
		<path class="st7" d="M325.9,198.2"/>
		<path class="st7" d="M308.1,198.2"/>
		<path class="st7" d="M325.9,194.9"/>
		<path class="st7" d="M308.1,194.9"/>
	</g>
	<g>
		<rect x="262.6" y="169.7" class="st7" width="29.2" height="45.3"/>
		<polygon class="st6" points="287.2,186.4 267.1,186.2 267.1,175.7 287.2,175.9 		"/>
		<line class="st7" x1="267.1" y1="193.2" x2="287.2" y2="193.2"/>
		<line class="st7" x1="267.1" y1="197.7" x2="287.2" y2="197.7"/>
		<line class="st7" x1="267.1" y1="202.2" x2="287.2" y2="202.2"/>
		<line class="st7" x1="267.1" y1="206.7" x2="276.7" y2="206.7"/>
		<path class="st7" d="M285,198.2"/>
		<path class="st7" d="M267.1,198.2"/>
		<path class="st7" d="M285,194.9"/>
		<path class="st7" d="M267.1,194.9"/>
	</g>
</g>
<g>
	<path class="st7" d="M327.4,159.8c5.1,0,0.9,0,6,0"/>
	<path class="st7" d="M316.4,159.8c1.9,0,3.8,0,5.7,0"/>
	<path class="st7" d="M306,159.8c1.9,0,3.8,0,5.7,0"/>
	<path class="st7" d="M293.3,159.8c1.9,0,3.8,0,5.7,0"/>
	<path class="st7" d="M247.3,159.7c2.7,0,5.5,0,8.2,0"/>
</g>
<g>
	<path class="st7" d="M374.2,159.7c2.6,0,5.2,0,7.8,0"/>
	<path class="st7" d="M360.2,159.7c2.7,0,5.5,0,8.2,0"/>
	<path class="st7" d="M348.5,159.7c2.7,0,5.5,0,8.2,0"/>
</g>
<g>
	<g>
		<rect x="385.4" y="116.6" class="st7" width="29.2" height="45.3"/>
		<polygon class="st6" points="410.1,133.3 390,133.1 390,122.5 410.1,122.7 		"/>
		<line class="st7" x1="390" y1="140.1" x2="410.1" y2="140.1"/>
		<line class="st7" x1="390" y1="144.6" x2="410.1" y2="144.6"/>
		<line class="st7" x1="390" y1="149.1" x2="410.1" y2="149.1"/>
		<line class="st7" x1="390" y1="153.6" x2="399.5" y2="153.6"/>
		<path class="st7" d="M407.8,145.1"/>
		<path class="st7" d="M390,145.1"/>
		<path class="st7" d="M407.8,141.8"/>
		<path class="st7" d="M390,141.8"/>
	</g>
	<g>
		<rect x="262.6" y="116.6" class="st7" width="29.2" height="45.3"/>
		<polygon class="st6" points="287.2,133.3 267.1,133.1 267.1,122.5 287.2,122.7 		"/>
		<line class="st7" x1="267.1" y1="140.1" x2="287.2" y2="140.1"/>
		<line class="st7" x1="267.1" y1="144.6" x2="287.2" y2="144.6"/>
		<line class="st7" x1="267.1" y1="149.1" x2="287.2" y2="149.1"/>
		<line class="st7" x1="267.1" y1="153.6" x2="276.7" y2="153.6"/>
		<path class="st7" d="M285,145.1"/>
		<path class="st7" d="M267.1,145.1"/>
		<path class="st7" d="M285,141.8"/>
		<path class="st7" d="M267.1,141.8"/>
	</g>
</g>
<circle class="st7" cx="340" cy="159" r="6"/>
</svg>
