<?xml version="1.0" encoding="utf-8"?>
<!-- Generator: Adobe Illustrator 21.0.0, SVG Export Plug-In . SVG Version: 6.00 Build 0)  -->
<svg version="1.1" id="Layer_1" xmlns="http://www.w3.org/2000/svg" xmlns:xlink="http://www.w3.org/1999/xlink" x="0px" y="0px"
	 viewBox="0 0 512 512" style="enable-background:new 0 0 512 512;" xml:space="preserve">
<style type="text/css">
	.st0{fill:#6D7A8C;}
</style>
<path class="st0" d="M360.6,356.3c0-4.1-3.4-7.5-7.5-7.5h-17.6l12.5-12.5c2.9-2.9,2.9-7.7,0-10.6s-7.7-2.9-10.6,0l-12.5,12.5v-17.6
	c0-4.1-3.4-7.5-7.5-7.5c-4.1,0-7.5,3.4-7.5,7.5v17.6l-12.5-12.5c-2.9-2.9-7.7-2.9-10.6,0s-2.9,7.7,0,10.6l12.5,12.5h-17.6
	c-4.1,0-7.5,3.4-7.5,7.5s3.4,7.5,7.5,7.5h17.6l-12.5,12.5c-2.9,2.9-2.9,7.7,0,10.6c1.5,1.5,3.4,2.2,5.3,2.2s3.8-0.7,5.3-2.2
	l12.5-12.5v17.6c0,4.1,3.4,7.5,7.5,7.5c4.1,0,7.5-3.4,7.5-7.5v-17.6l12.5,12.5c1.5,1.5,3.4,2.2,5.3,2.2s3.8-0.7,5.3-2.2
	c2.9-2.9,2.9-7.7,0-10.6l-12.5-12.5h17.6C357.2,363.8,360.6,360.5,360.6,356.3z M403.8,168.2c-4.5-3.8-9.1-7.5-13.8-10.9v-36.6
	C389.9,54.2,335.8,0,269.2,0h-26.8C207.3,0,174,15.3,151,42c-2.7,3.1-2.4,7.9,0.8,10.6c3.1,2.7,7.9,2.4,10.6-0.8
	C182.5,28.4,211.7,15,242.4,15h26.8c58.3,0,105.7,47.4,105.7,105.7v26.7c-10.7-6.4-22-11.9-33.8-16.5v-10.2
	c0-39.7-32.3-71.9-71.9-71.9h-26.8c-39.7,0-71.9,32.3-71.9,71.9v10.2c-11.8,4.6-23.1,10.1-33.8,16.5v-26.7c0-14.1,2.7-27.8,8.1-40.7
	c1.6-3.8-0.2-8.2-4-9.8c-3.8-1.6-8.2,0.2-9.8,4c-6.2,14.7-9.3,30.4-9.3,46.5v36.6c-4.8,3.4-9.4,7.1-13.8,10.9
	C68,202.6,46,248.5,46,297.4c0,37.8,13.2,73.9,38.2,104.7c4.3,21.5,7.6,52.3-0.5,80.4c-2.4,8.2-0.1,16.6,5.9,22.7
	c4.5,4.4,10.4,6.8,16.5,6.8c2.2,0,4.4-0.3,6.5-0.9c28.8-8.4,49-22.4,64.6-44.8c25,8.8,51.4,13.2,78.6,13.2
	c48.7,0,96.2-14.8,133.7-41.7c3.4-2.4,4.1-7.1,1.7-10.5c-2.4-3.4-7.1-4.1-10.5-1.7c-34.9,25.1-79.3,38.9-124.9,38.9
	c-27.4,0-53.9-4.8-78.9-14.3c-3.3-1.3-7.1,0-9,3c-14,22.1-32.3,35.5-59.5,43.5c-3,0.9-6.1,0.1-8.3-2.1c-1-1-3.3-3.8-2.1-7.9
	c7.4-25.6,7.5-55.6,0.4-89.4c-0.3-1.2-0.8-2.3-1.6-3.2C73.4,365.6,61,332.2,61,297.4c0-92.2,87.4-167.1,194.8-167.1
	c107.4,0,194.8,75,194.8,167.1c0,38.4-15.6,75.9-43.9,105.6c-2.9,3-2.7,7.7,0.3,10.6s7.7,2.7,10.6-0.3c31-32.5,48-73.7,48-116
	C465.6,248.5,443.7,202.6,403.8,168.2z M326.1,125.7c-22.3-6.9-46-10.4-70.3-10.4s-48,3.6-70.3,10.4v-5c0-31.4,25.5-56.9,56.9-56.9
	h26.8c31.4,0,56.9,25.5,56.9,56.9V125.7z M319.7,213.1c0-4.8,3.9-8.7,8.7-8.7s8.7,3.9,8.7,8.7c0,4.1,3.4,7.5,7.5,7.5
	s7.5-3.4,7.5-7.5c0-13.1-10.6-23.7-23.7-23.7s-23.7,10.6-23.7,23.7c0,4.1,3.4,7.5,7.5,7.5C316.3,220.6,319.7,217.3,319.7,213.1z
	 M237.6,356.3c0-4.1-3.4-7.5-7.5-7.5h-17.6l12.5-12.5c2.9-2.9,2.9-7.7,0-10.6s-7.7-2.9-10.6,0l-12.5,12.5v-17.6
	c0-4.1-3.4-7.5-7.5-7.5c-4.1,0-7.5,3.4-7.5,7.5v17.6l-12.5-12.5c-2.9-2.9-7.7-2.9-10.6,0s-2.9,7.7,0,10.6l12.5,12.5h-17.6
	c-4.1,0-7.5,3.4-7.5,7.5s3.4,7.5,7.5,7.5h17.6l-12.5,12.5c-2.9,2.9-2.9,7.7,0,10.6c1.5,1.5,3.4,2.2,5.3,2.2s3.8-0.7,5.3-2.2
	l12.5-12.5v17.6c0,4.1,3.4,7.5,7.5,7.5c4.1,0,7.5-3.4,7.5-7.5v-17.6l12.5,12.5c1.5,1.5,3.4,2.2,5.3,2.2s3.8-0.7,5.3-2.2
	c2.9-2.9,2.9-7.7,0-10.6l-12.5-12.5h17.6C234.2,363.8,237.6,360.5,237.6,356.3z M167,220.6c4.1,0,7.5-3.4,7.5-7.5
	c0-4.8,3.9-8.7,8.7-8.7s8.7,3.9,8.7,8.7c0,4.1,3.4,7.5,7.5,7.5c4.1,0,7.5-3.4,7.5-7.5c0-13.1-10.6-23.7-23.7-23.7
	s-23.7,10.6-23.7,23.7C159.5,217.3,162.8,220.6,167,220.6z M278.7,237c2.7-3.1,2.4-7.9-0.7-10.6c-3.1-2.7-7.9-2.4-10.6,0.7
	c-2.9,3.4-7.1,5.3-11.6,5.3s-8.7-1.9-11.6-5.3c-2.7-3.1-7.5-3.4-10.6-0.7c-3.1,2.7-3.4,7.5-0.7,10.6c5.8,6.6,14.1,10.4,22.9,10.4
	S272.9,243.6,278.7,237z"/>
</svg>
