<?xml version="1.0" encoding="UTF-8"?>
<svg width="205px" height="238px" viewBox="0 0 205 238" version="1.1" xmlns="http://www.w3.org/2000/svg" xmlns:xlink="http://www.w3.org/1999/xlink">
    <!-- Generator: Sketch 52.3 (67297) - http://www.bohemiancoding.com/sketch -->
    <title>Group</title>
    <desc>Created with Sketch.</desc>
    <defs>
        <linearGradient x1="50%" y1="0%" x2="50%" y2="100%" id="linearGradient-1">
            <stop stop-color="#FAD961" offset="0%"></stop>
            <stop stop-color="#F76B1C" offset="100%"></stop>
        </linearGradient>
    </defs>
    <g id="Page-1" stroke="none" stroke-width="1" fill="none" fill-rule="evenodd">
        <g id="svg-icon" transform="translate(-218.000000, -77.000000)" fill-rule="nonzero">
            <g id="Group" transform="translate(211.000000, 70.000000)">
                <path d="M43.2479977,38.7479977 L175.247998,38.7479977 C185.189123,38.7479977 193.247998,46.8068722 193.247998,56.7479977 L193.247998,161.747998 C193.247998,171.689123 185.189123,179.747998 175.247998,179.747998 L43.2479977,179.747998 C33.3068722,179.747998 25.2479977,171.689123 25.2479977,161.747998 L25.2479977,56.7479977 C25.2479977,46.8068722 33.3068722,38.7479977 43.2479977,38.7479977 Z M44.2479977,39.7479977 C34.3068722,39.7479977 26.2479977,47.8068722 26.2479977,57.7479977 L26.2479977,161.069426 C26.2479977,171.010552 34.3068722,179.069426 44.2479977,179.069426 L174.247998,179.069426 C184.189123,179.069426 192.247998,171.010552 192.247998,161.069426 L192.247998,57.7479977 C192.247998,47.8068722 184.189123,39.7479977 174.247998,39.7479977 L44.2479977,39.7479977 Z" id="Combined-Shape" fill="#EEEFF4" transform="translate(109.247998, 109.247998) rotate(45.000000) translate(-109.247998, -109.247998) "></path>
                <path d="M42.7403195,75.0796052 L171.74032,75.0796052 C181.681445,75.0796052 189.74032,83.1384797 189.74032,93.0796052 L189.74032,195.401034 C189.74032,205.342159 181.681445,213.401034 171.74032,213.401034 L42.7403195,213.401034 C32.799194,213.401034 24.7403195,205.342159 24.7403195,195.401034 L24.7403195,93.0796052 C24.7403195,83.1384797 32.799194,75.0796052 42.7403195,75.0796052 Z M44.0857864,76.0857864 C34.1446609,76.0857864 26.0857864,84.1446609 26.0857864,94.0857864 L26.0857864,194.245527 C26.0857864,204.186652 34.1446609,212.245527 44.0857864,212.245527 L170.507165,212.245527 C180.448291,212.245527 188.507165,204.186652 188.507165,194.245527 L188.507165,94.0857864 C188.507165,84.1446609 180.448291,76.0857864 170.507165,76.0857864 L44.0857864,76.0857864 Z" id="Combined-Shape" fill="url(#linearGradient-1)" opacity="0.355747768" transform="translate(107.240320, 144.240320) rotate(45.000000) translate(-107.240320, -144.240320) "></path>
            </g>
        </g>
    </g>
</svg>