<?xml version="1.0" encoding="UTF-8"?>
<svg width="32px" height="32px" viewBox="0 0 32 32" version="1.1" xmlns="http://www.w3.org/2000/svg" xmlns:xlink="http://www.w3.org/1999/xlink">
    <!-- Generator: Sketch 54.1 (76490) - https://sketchapp.com -->
    <title>002-menu</title>
    <desc>Created with Sketch.</desc>
    <g id="Symbols" stroke="none" stroke-width="1" fill="none" fill-rule="evenodd">
        <g id="header" transform="translate(-1384.000000, -10.000000)" fill="#737381" fill-rule="nonzero">
            <g id="Group">
                <g id="002-menu" transform="translate(1384.000000, 10.000000)">
                    <path d="M16,0 C7.16354167,0 0,7.16354167 0,16 C0,24.8364583 7.16354167,32 16,32 C24.8364583,32 32,24.8364583 32,16 C31.9901041,7.16770833 24.8322917,0.00989586667 16,0 Z M16,30.9333333 C7.75260413,30.9333333 1.06666667,24.2473959 1.06666667,16 C1.06666667,7.75260413 7.75260413,1.06666667 16,1.06666667 C24.2473959,1.06666667 30.9333333,7.75260413 30.9333333,16 C30.9239583,24.2434896 24.2434896,30.9239583 16,30.9333333 Z" id="Shape"></path>
                    <path d="M22.9333333,10.6666667 L9.06666667,10.6666667 C8.7721354,10.6666667 8.53333333,10.9054687 8.53333333,11.2 C8.53333333,11.4945313 8.7721354,11.7333333 9.06666667,11.7333333 L22.9333333,11.7333333 C23.2278646,11.7333333 23.4666667,11.4945313 23.4666667,11.2 C23.4666667,10.9054687 23.2278646,10.6666667 22.9333333,10.6666667 Z" id="Path"></path>
                    <path d="M22.9333333,16 L9.06666667,16 C8.7721354,16 8.53333333,16.2388021 8.53333333,16.5333333 C8.53333333,16.8278646 8.7721354,17.0666667 9.06666667,17.0666667 L22.9333333,17.0666667 C23.2278646,17.0666667 23.4666667,16.8278646 23.4666667,16.5333333 C23.4666667,16.2388021 23.2278646,16 22.9333333,16 Z" id="Path"></path>
                    <path d="M22.9333333,21.3333333 L9.06666667,21.3333333 C8.7721354,21.3333333 8.53333333,21.5721354 8.53333333,21.8666667 C8.53333333,22.1611979 8.7721354,22.4 9.06666667,22.4 L22.9333333,22.4 C23.2278646,22.4 23.4666667,22.1611979 23.4666667,21.8666667 C23.4666667,21.5721354 23.2278646,21.3333333 22.9333333,21.3333333 Z" id="Path"></path>
                </g>
            </g>
        </g>
    </g>
</svg>