<?xml version="1.0" encoding="UTF-8"?>
<svg width="21px" height="20px" viewBox="0 0 21 20" version="1.1" xmlns="http://www.w3.org/2000/svg" xmlns:xlink="http://www.w3.org/1999/xlink">
    <!-- Generator: Sketch 54.1 (76490) - https://sketchapp.com -->
    <title>ic_tikets</title>
    <desc>Created with Sketch.</desc>
    <g id="Symbols" stroke="none" stroke-width="1" fill="none" fill-rule="evenodd">
        <g id="Sidebar-Dashboard" transform="translate(-207.000000, -469.000000)" fill="#737381" fill-rule="nonzero">
            <g id="ic_tikets" transform="translate(207.000000, 469.000000)">
                <path d="M18.0040957,0.0195644531 L2.9959043,0.0195644531 C1.34391797,0.0195644531 0,1.36352344 0,3.01546875 L0,13.1447285 C0,14.7966738 1.34391797,16.1406328 2.9959043,16.1406328 L4.17153516,16.1406328 L4.19454492,18.7854434 C4.1965957,19.0291992 4.33658203,19.2507246 4.55585156,19.3572832 C4.64497852,19.4005957 4.74091406,19.4218828 4.83639844,19.4218828 C4.97581055,19.4218828 5.11419727,19.3765195 5.22871289,19.2880898 L9.30669141,16.1406328 L18.0040957,16.1406328 C19.656082,16.1406328 21,14.7966738 21,13.1447285 L21,3.01546875 C21,1.36352344 19.656082,0.0195644531 18.0040957,0.0195644531 Z M19.7160469,13.1447695 C19.7160469,14.0887441 18.9480703,14.8567207 18.0040957,14.8567207 L9.08779102,14.8567207 C8.94587695,14.8567207 8.80794141,14.9037656 8.69555859,14.9904727 L5.46717773,17.4821719 L5.44986914,15.4931191 C5.44683398,15.1407539 5.16029883,14.8567207 4.80793359,14.8567207 L2.9959043,14.8567207 C2.05192969,14.8567207 1.28395313,14.0887441 1.28395313,13.1447695 L1.28395313,3.01546875 C1.28395313,2.07149414 2.05192969,1.30351758 2.9959043,1.30351758 L18.0041367,1.30351758 C18.9481113,1.30351758 19.7160879,2.07149414 19.7160879,3.01546875 L19.7160879,13.1447695 L19.7160469,13.1447695 Z" id="Shape"></path>
            </g>
        </g>
    </g>
</svg>