<?xml version="1.0" encoding="UTF-8"?>
<svg width="1024px" height="348px" viewBox="0 0 1024 348" version="1.1" xmlns="http://www.w3.org/2000/svg" xmlns:xlink="http://www.w3.org/1999/xlink">
    <!-- Generator: Sketch 52.3 (67297) - http://www.bohemiancoding.com/sketch -->
    <title>Rectangle</title>
    <desc>Created with Sketch.</desc>
    <defs>
        <linearGradient x1="50.6797808%" y1="71.0121365%" x2="50.6797808%" y2="-59.4648717%" id="linearGradient-1">
            <stop stop-color="#FFFFFF" offset="0%"></stop>
            <stop stop-color="#F1F1F1" offset="100%"></stop>
        </linearGradient>
    </defs>
    <g id="Page-1" stroke="none" stroke-width="1" fill="none" fill-rule="evenodd">
        <g id="صفحه-اصلی" transform="translate(0.000000, -302.000000)" fill="url(#linearGradient-1)" fill-rule="nonzero">
            <path d="M50.0168536,458.474296 C62.5332652,474.805399 76.973022,484.830367 93.3361238,488.5492 C163.743932,504.550747 320.337087,380.575961 386.31968,383.120405 C568.263714,390.136597 614.317865,327.76146 752.927219,327.76146 C801.43058,327.76146 859.180696,345.165088 906.555205,340.226435 C934.069217,337.358181 972.27217,324.677243 1021.16406,302.183622 L1021.16405,302.1836 C1022.16753,301.721932 1023.35526,302.161155 1023.81693,303.164632 C1023.93755,303.426802 1024,303.71197 1024,304.000556 L1024,648 C1024,649.104569 1023.10457,650 1022,650 L2,650 C0.8954305,650 1.3527075e-16,649.10457 0,648 C-6.87741493e-24,648 2.36847579e-15,648 7.10542736e-15,648 L1.47243956e-05,475.436726 C1.6023408e-05,460.036443 12.4844132,447.552048 27.8846963,447.552049 C36.5593803,447.55205 44.7399729,451.589191 50.0168355,458.47431 Z" id="Rectangle"></path>
        </g>
    </g>
</svg>