<svg aria-hidden="true" style="position: absolute; width: 0; height: 0; overflow: hidden;" version="1.1"
     xmlns="http://www.w3.org/2000/svg" xmlnsxlink="http://www.w3.org/1999/xlink" >
    <defs>
        <symbol id="checked" viewBox="0 0 32 32">
            <title>checked</title>
            <path d="M31.614 0.23c-0.445-0.36-1.093-0.288-1.45 0.16l-16.465 20.718-5.39-6.782c-0.356-0.448-1.006-0.521-1.45-0.16s-0.516 1.016-0.157 1.466l5.964 7.505c0.181 0.323 0.519 0.516 0.884 0.516 0.057 0 0.116-0.017 0.175-0.026 0.033 0.004 0.066 0.022 0.101 0.022 0.326 0 0.643-0.16 0.844-0.43l17.102-21.523c0.358-0.449 0.286-1.105-0.159-1.465z"></path>
            <path d="M29.579 10.592c-0.57 0-1.031 0.466-1.031 1.042v17.239c0 0.575-0.463 1.043-1.032 1.043h-24.421c-0.57 0-1.032-0.468-1.032-1.043v-24.677c0-0.574 0.463-1.042 1.032-1.042h16.905c0.57 0 1.032-0.467 1.032-1.043 0-0.575-0.462-1.042-1.032-1.042h-16.905c-1.707 0-3.095 1.403-3.095 3.127v24.677c0 1.724 1.388 3.128 3.095 3.128h24.421c1.707 0 3.096-1.403 3.096-3.128v-17.239c0-0.576-0.461-1.042-1.032-1.042z"></path>
        </symbol>
         <symbol id="icon-logo" viewBox="0 0 500 500">
            <title>Zhaak</title>
            <g id="svg-icon">
            <g id="Group" transform="translate(12.000000, 33.000000)">
                <path id="Combined-Shape" class="st0" d="M159.5,207.7c-3.3,4.3-6.2,8.1-8.2,10.9c-13.3,18.4-26.8,36.8-40.8,59.9
                    C88.7,314.6,71.9,345.8,60,372c-16.1-10.9-25-20.7-26.6-29.4c-2.5-13-2.9-25.5,9.1-44.8c32.5-52.5,34.9-52.9,65.6-95.1
                    c16.7-22.9,48.3-55.7,74.4-79.8c21.9-20.1,46.4-39.7,52.8-44.2c13.9-9.9,27.2-2.3,24.3,5.3s-22.4,25.3-54.1,65.5
                    c-3,3.8-11.6,14.5-21.2,26.6c-4.4,7.9-5.4,12.2-3.1,12.9c4.9,1.5,12.6-0.8,20.1-3.2c16.6-5.3,108.4-46.6,149-81
                    c11.9-10.1,17.1-17.2,13.9-27c-4.8-14.7-38.3-18.6-75.7-16.7c-28,1.4-48.7,4.1-66.8,7.7c-16.3,11.7-33.3,26.8-46.7,40.1
                    c-7.9,7.9-28.1,25.2-60.5,51.8c-6.9,5.9-18.6,14.8-28,19.8c-12.9,6.8-22,11.5-37.9,15.5S12,196,3.2,176
                    c-8.3-19,0.4-32.7,15.8-52.1c6.9-8.6,22.8-23.9,56.4-42.4c41.4-22.9,100.4-41.2,125.9-44.2c5.1-0.6,12.6-1.5,21.6-2.3
                    c6-2.9,12.8-6.1,20.4-9.6c17.6-8.2,36.1-13.5,48.8-17C341.3-5.2,379.8,0.9,399,4.8C409.4,7,421.1,11,434.1,17
                    c3.8,2.5,5.8,8.2,5.9,17.3c0.1,9-2.8,15.6-8.7,19.7c-11.3-8.5-22-15-32.3-19.7c-15.4-7-30.9-9.6-40.9-10.5
                    c-7.8-0.7-27.5-0.5-37.4,1.5c-8.5,1.7-16,3.7-25.1,7c19.5,0.9,37.8,3.5,50.7,9.3c36.9,16.7,43.2,38.7,39.6,57.7
                    s-15.3,40-39.6,56.4c-18.8,12.7-29.2,19.9-53.9,34.3c-22.7,13.3-50.4,24.8-52,28.2s26.5,40.6,76.2,80.3s59.1,44.8,75.5,44.8
                    c16.3,0,30.6-6.7,31.6-23.1c0.5-9.3-9-24.3-31.6-23.8c-17.2,0.4-44.6,13.6-62.6,26.5c-23.7,17-57.9,47-92.8,76.1
                    c-41.6,34.7-64.6,38.4-101.2,32.6c-34.1-5.4-50.3-30.2-54.3-37.7c-8.8-16.5,28.4-63.2,28.1-63.6c-0.7-0.9,26.4,48.4,65.4,54.1
                    c16.9,2.5,26.7,0,41.5-11.7c44.3-35.1,52.2-49.1,89.6-80.4s84.3-39.9,100.7-39.9c31.5,0,49.8,19.3,58.1,30.3
                    c4.2,5.6,11.1,18.1,12.5,28.5c1.3,10.2-0.2,19.1-2.3,29.6c-2.1,10.5-8.9,26.1-18.2,36.8c-5.8,6.7-18.5,15.8-35.4,21.4
                    c-14.6,4.8-33.5,7.3-53.8,5.3s-43.5-12.8-72.3-34.9C245.8,331.7,185.6,261.7,159.5,207.7z M85.6,139.1c4.8-4,35.4-26.1,62.4-49.3
                    c-60.5,21-83.2,39.9-96.2,48.6c-14.8,9.8-9.8,19.4,1.9,17.4C64.4,154,78.2,144.6,85.6,139.1z"/>
            </g>
            </g>
        </symbol>
         <symbol id="icon-camera" viewBox="0 0 100 100">
            <title>دوربین</title>
            	<path d="M50,40c-8.285,0-15,6.718-15,15c0,8.285,6.715,15,15,15c8.283,0,15-6.715,15-15
			C65,46.718,58.283,40,50,40z M90,25H78c-1.65,0-3.428-1.28-3.949-2.846l-3.102-9.309C70.426,11.28,68.65,10,67,10H33
			c-1.65,0-3.428,1.28-3.949,2.846l-3.102,9.309C25.426,23.72,23.65,25,22,25H10C4.5,25,0,29.5,0,35v45c0,5.5,4.5,10,10,10h80
			c5.5,0,10-4.5,10-10V35C100,29.5,95.5,25,90,25z M50,80c-13.807,0-25-11.193-25-25c0-13.806,11.193-25,25-25
			c13.805,0,25,11.194,25,25C75,68.807,63.805,80,50,80z M86.5,41.993c-1.932,0-3.5-1.566-3.5-3.5c0-1.932,1.568-3.5,3.5-3.5
			c1.934,0,3.5,1.568,3.5,3.5C90,40.427,88.433,41.993,86.5,41.993z"/>
        </symbol>
        <symbol id="icon-agreement" viewBox="0 0 495.622 495.622">
            <title>توافق نامه</title>
           <g>
                <path  d="M495.622,113.089v150.03c0,0-32.11,6.326-38.725,7.158c-6.594,0.83-27.316,7.521-42.334-6.914
                    c-23.16-22.197-105.447-104.03-105.447-104.03s-14.188-13.922-36.969-1.89c-20.912,11.022-51.911,27.175-64.859,33.465
                    c-24.477,13.028-44.764-7.642-44.764-23.387c0-12.213,7.621-20.502,18.515-26.598c29.524-17.898,91.752-52.827,117.67-66.598
                    c15.754-8.379,27.105-9.097,48.734,9.124c26.638,22.403,50.344,42.824,50.344,42.824s7.732,6.453,20.063,3.854
                    C448.13,123.725,495.622,113.089,495.622,113.089z M168.098,367.3c3.985-10.238,2.653-21.689-4.987-29.545
                    c-6.865-7.027-16.888-8.879-26.445-6.689c2.673-9.479,1.197-19.568-5.705-26.688c-6.886-7.009-16.89-8.898-26.446-6.688
                    c2.653-9.465,1.181-19.553-5.725-26.652c-10.814-11.092-29.519-10.616-41.807,1.097c-12.223,11.729-20.053,32.979-9.144,45.487
                    c10.891,12.445,23.405,4.873,32.945,2.699c-2.654,9.465-10.606,18.269-0.813,30.658c9.784,12.395,23.404,4.875,32.954,2.721
                    c-2.663,9.429-10.268,19.117-0.851,30.604c9.502,11.522,25.065,5.383,35.344,2.19c-3.967,10.199-12.458,21.193-1.549,33.513
                    c10.892,12.409,36.063,6.668,48.358-5.063c12.262-11.729,13.439-30.318,2.654-41.445
                    C189.435,365.865,178.335,364.089,168.098,367.3z M392.442,289.246c-88.88-88.881-47.075-47.058-94.906-94.992
                    c0,0-14.375-14.311-33.321-5.998c-13.3,5.828-30.423,13.771-43.307,19.835c-14.158,7.424-24.347,9.722-29.131,9.69
                    c-27.37-0.179-49.576-22.178-49.576-49.521c0-17.738,9.417-33.181,23.462-41.947c19.75-13.667,65.21-37.847,65.21-37.847
                    s-13.849-17.549-44.187-17.549c-30.329,0-93.695,41.512-93.695,41.512s-17.976,11.514-43.601,1.143L0,96.373V268.05
                    c0,0,14.103,4.082,26.775,9.258c2.862-8.162,7.48-15.699,13.886-21.924c21.023-20.024,55.869-20.232,74.996-0.537
                    c5.762,5.987,9.783,13.129,11.835,21.024c7.707,2.379,14.688,6.593,20.298,12.373c5.779,5.947,9.785,13.129,11.854,20.984
                    c7.698,2.381,14.669,6.611,20.298,12.395c6.339,6.537,10.562,14.433,12.534,22.988c8.047,2.344,15.319,6.705,21.176,12.693
                    c11.495,11.807,15.575,27.826,13.103,43.278c0.02,0,0.058,0,0.076,0.035c0.188,0.246,7.122,7.976,11.446,12.336
                    c8.474,8.482,22.311,8.482,30.811,0c8.444-8.479,8.481-22.289,0-30.811c-0.304-0.303-30.572-31.963-28.136-34.418
                    c2.418-2.438,40.981,37.688,41.699,38.422c8.463,8.465,22.291,8.465,30.792,0c8.481-8.479,8.463-22.289,0-30.791
                    c-0.416-0.396-2.152-2.059-2.796-2.721c0,0-38.234-34.06-35.324-36.97c2.946-2.928,50.438,41.392,50.515,41.392
                    c8.537,7.688,21.687,7.631,29.9-0.586c7.991-7.99,8.162-20.629,1.078-29.146c-0.15-0.453-36.194-38.121-33.381-40.955
                    c2.854-2.871,38.519,33.853,38.594,33.929c8.444,8.463,22.291,8.463,30.792,0c8.463-8.464,8.463-22.291,0-30.83
                    C392.706,289.396,392.555,289.32,392.442,289.246z"/>
            </g>
        </symbol>
         <symbol id="icon-attachment"  viewBox="0 0 51.619 51.619">
            <title>آپلود</title>
           <g>
               <path d="M50.14,19.206c-0.391-0.391-1.023-0.391-1.414,0L21.432,46.5c-2.012,2.012-4.697,3.119-7.563,3.119
                c-2.867,0-5.553-1.107-7.564-3.119s-3.119-4.697-3.119-7.564c0-2.866,1.107-5.552,3.119-7.563L33.598,4.078
                c2.897-2.896,7.445-2.719,10.579,0.413c3.133,3.133,3.311,7.682,0.414,10.579L18.951,40.711c-1.433,1.433-3.767,1.434-5.203,0
                c-1.434-1.435-1.434-3.769,0-5.203l17.369-17.369c0.391-0.391,0.391-1.023,0-1.414s-1.023-0.391-1.414,0L12.334,34.093
                c-2.214,2.214-2.214,5.816,0,8.031c2.216,2.216,5.819,2.212,8.031,0l25.641-25.641c3.703-3.704,3.525-9.468-0.414-13.407
                c-3.938-3.938-9.703-4.117-13.407-0.413L4.89,29.958c-2.39,2.389-3.705,5.577-3.705,8.978c0,3.401,1.315,6.59,3.705,8.979
                c2.389,2.39,5.577,3.705,8.979,3.705c3.4,0,6.589-1.315,8.978-3.705L50.14,20.62C50.531,20.229,50.531,19.596,50.14,19.206z"/>
            </g>
        </symbol>
        <symbol id="icon-success"  viewBox="0 0 50 50">
            <title>موفقیت</title>
            <circle style="fill:#25AE88;" cx="25" cy="25" r="25"/>
            <polyline style="fill:none;stroke:#FFFFFF;stroke-width:2;stroke-linecap:round;stroke-linejoin:round;stroke-miterlimit:10;" points="
                38,15 22,33 12,25 "/>
        </symbol>
        <symbol id="icon-download">
            <title>دانلود</title>
            <g  transform="translate(933.000000, 6835.000000)">
                <path d="M25.3381172,15.6886641 C24.9726445,15.6886641 24.6762344,15.9850742 24.6762344,16.3505469 L24.6762344,18.8796562 C24.6762344,20.3394648 23.4885625,21.5271367 22.0287539,21.5271367 L3.97124609,21.5271367 C2.5114375,21.5271367 1.32376563,20.3394648 1.32376563,18.8796562 L1.32376563,16.3505469 C1.32376563,15.9850742 1.02745703,15.6886641 0.661882813,15.6886641 C0.296308594,15.6886641 0,15.9850234 0,16.3505469 L0,18.8796562 C0,21.0693945 1.78150781,22.8509023 3.97124609,22.8509023 L22.0287539,22.8509023 C24.2184922,22.8509023 26,21.0693945 26,18.8796562 L26,16.3505469 C26,15.9850234 25.7036914,15.6886641 25.3381172,15.6886641 Z" id="Path"></path>
                <path d="M21.3196445,18.2964844 L4.68035547,18.2964844 C4.31488281,18.2964844 4.01847266,18.5928945 4.01847266,18.9583672 C4.01847266,19.3238398 4.31478125,19.62025 4.68035547,19.62025 L21.3195938,19.62025 C21.685168,19.62025 21.9814766,19.3239414 21.9814766,18.9583672 C21.9814766,18.5928945 21.685168,18.2964844 21.3196445,18.2964844 Z" id="Path"></path>
                <path d="M19.6990117,8.98472656 C19.4555156,8.71218359 19.0371289,8.68846875 18.7644336,8.93201563 L13.661832,13.4903945 L13.661832,0.66259375 C13.661832,0.297121094 13.3655234,0.0007109375 12.9999492,0.0007109375 C12.6344766,0.0007109375 12.3380664,0.297019531 12.3380664,0.66259375 L12.3380664,13.4903945 L7.23546484,8.93206641 C6.96292188,8.68851953 6.54448438,8.71228516 6.30088672,8.98477734 C6.05744141,9.25742188 6.08095313,9.67585938 6.35354688,9.91935547 L11.8975391,14.8718984 C12.2117227,15.152668 12.6057344,15.2929766 12.9998984,15.2929766 C13.3939102,15.2929766 13.7879727,15.152668 14.1022578,14.8720508 L19.64625,9.91935547 C19.9189453,9.67570703 19.9425078,9.25726953 19.6990117,8.98472656 Z" id="Path"></path>
            </g>
        </symbol>
        <symbol id="icon-ticketAdd" viewBox="0 0 12 12">
            <title>اضافه کردن</title>
            <g id="Page-1" stroke="none" stroke-width="2" fill-rule="evenodd">
                <g id="A0" transform="translate(-937.000000, -5312.000000)" fill-rule="nonzero">
                    <g id="Group" transform="translate(815.000000, 5302.000000)">
                        <g id="plus-symbol" transform="translate(122.000000, 10.000000)">
                            <path d="M0.419625,6.315375 C0.1875,6.315375 0.003,6.124875 0.003,5.89275 C0.003,5.660625 0.1875,5.476125 0.419625,5.476125 L5.47275,5.476125 L5.47275,0.422625 C5.473125,0.1905 5.663625,0 5.89575,0 C6.127875,0 6.312375,0.1905 6.312375,0.422625 L6.312375,5.476125 L11.3655,5.476125 C11.597625,5.476125 11.788125,5.660625 11.788125,5.89275 C11.788125,6.124875 11.597625,6.315375 11.3655,6.315375 L6.312375,6.315375 L6.312375,11.368875 C6.312375,11.601 6.127875,11.7915 5.89575,11.7915 C5.663625,11.7915 5.473125,11.601 5.473125,11.368875 L5.473125,6.315375 L0.419625,6.315375 Z" id="Path"></path>
                        </g>
                    </g>
                </g>
            </g>
        </symbol>
        <symbol id="icon-user" viewBox="0 0 55 55">
          <title>کاربر</title>
            <path style="fill:#E7ECED;" d="M18.613,41.552l-7.907,4.313c-0.464,0.253-0.881,0.564-1.269,0.903C14.047,50.655,19.998,53,26.5,53
                c6.454,0,12.367-2.31,16.964-6.144c-0.424-0.358-0.884-0.68-1.394-0.934l-8.467-4.233c-1.094-0.547-1.785-1.665-1.785-2.888v-3.322
                c0.238-0.271,0.51-0.619,0.801-1.03c1.154-1.63,2.027-3.423,2.632-5.304c1.086-0.335,1.886-1.338,1.886-2.53v-3.546
                c0-0.78-0.347-1.477-0.886-1.965v-5.126c0,0,1.053-7.977-9.75-7.977s-9.75,7.977-9.75,7.977v5.126
                c-0.54,0.488-0.886,1.185-0.886,1.965v3.546c0,0.934,0.491,1.756,1.226,2.231c0.886,3.857,3.206,6.633,3.206,6.633v3.24
                C20.296,39.899,19.65,40.986,18.613,41.552z"/>
            <path style="fill:#556080;" d="M26.953,0.004C12.32-0.246,0.254,11.414,0.004,26.047C-0.138,34.344,3.56,41.801,9.448,46.76
                c0.385-0.336,0.798-0.644,1.257-0.894l7.907-4.313c1.037-0.566,1.683-1.653,1.683-2.835v-3.24c0,0-2.321-2.776-3.206-6.633
                c-0.734-0.475-1.226-1.296-1.226-2.231v-3.546c0-0.78,0.347-1.477,0.886-1.965v-5.126c0,0-1.053-7.977,9.75-7.977
                s9.75,7.977,9.75,7.977v5.126c0.54,0.488,0.886,1.185,0.886,1.965v3.546c0,1.192-0.8,2.195-1.886,2.53
                c-0.605,1.881-1.478,3.674-2.632,5.304c-0.291,0.411-0.563,0.759-0.801,1.03V38.8c0,1.223,0.691,2.342,1.785,2.888l8.467,4.233
                c0.508,0.254,0.967,0.575,1.39,0.932c5.71-4.762,9.399-11.882,9.536-19.9C53.246,12.32,41.587,0.254,26.953,0.004z"/>
        </symbol>
        <symbol id="icon-mobile" viewBox="0 0 15 15">
            <title>موبایل</title>
            <g id="اپلیکیشن۰۱" transform="translate(-839.000000, -845.000000)" fill="#737381" fill-rule="nonzero">
            <g id="telephone" transform="translate(846.500000, 852.500000) scale(-1, 1) translate(-846.500000, -852.500000) translate(839.000000, 845.000000)">
                <path d="M14.6140723,11.0634668 L12.7493555,9.19875 C12.2352539,8.68467773 11.3987109,8.68467773 10.8846387,9.19875 L10.0370508,10.0463379 C9.64757813,10.4358105 9.01382813,10.4356934 8.62450195,10.0464844 L4.95067383,6.36952148 C4.56029297,5.97914063 4.56023438,5.34729492 4.95067383,4.95685547 C5.08719727,4.82033203 5.47921875,4.42831055 5.79826172,4.10926758 C6.31010742,3.59745117 6.31725586,2.76351563 5.79776367,2.24408203 L3.93354492,0.385722656 C3.41944336,-0.128349609 2.58292969,-0.128349609 2.07020508,0.384375 C1.6865332,0.764707031 1.5627832,0.887402344 1.39075195,1.05793945 C-0.463154297,2.91181641 -0.463154297,5.92831055 1.39066406,7.78212891 L7.21171875,13.6062305 C9.06996094,15.464502 12.0775781,15.4646484 13.9359668,13.6062305 L14.6140723,12.9281543 C15.1281738,12.4140527 15.1281738,11.5775684 14.6140723,11.0634668 Z M2.69041992,1.00728516 C2.86177734,0.835927734 3.14056641,0.835898437 3.31248047,1.00775391 L5.17669922,2.86611328 C5.3484668,3.03788086 5.3484668,3.31587891 5.17669922,3.48767578 L4.86588867,3.79845703 L2.3812207,1.31378906 L2.69041992,1.00728516 Z M7.83339844,12.9847559 L2.01231445,7.1605957 C0.577998047,5.7262793 0.499160156,3.47408203 1.76985352,1.94557617 L4.24731445,4.42303711 C3.59633789,5.16099609 3.6234668,6.28549805 4.32896484,6.99099609 L8.00267578,10.6677832 C8.00270508,10.6678125 8.00276367,10.6678711 8.00279297,10.6679004 C8.7075293,11.372666 9.83197266,11.4015527 10.5708398,10.7496973 L13.0483594,13.2272168 C11.5247168,14.4957129 9.27758789,14.4289453 7.83339844,12.9847559 Z M13.9925391,12.3065918 L13.6817285,12.6174023 L11.1954492,10.1310937 L11.5062012,9.8203125 C11.6775879,9.64895508 11.9564063,9.64892578 12.127793,9.8203125 L13.9925098,11.6850293 C14.1638965,11.856416 14.1638965,12.1352637 13.9925391,12.3065918 Z" id="Shape"></path>
            </g>
        </symbol>
        <symbol id="icon-file" viewBox="0 0 60 60" >
            <title>فایل</title>
            <path d="M42.5,22h-25c-0.552,0-1,0.447-1,1s0.448,1,1,1h25c0.552,0,1-0.447,1-1S43.052,22,42.5,22z"/>
            <path d="M17.5,16h10c0.552,0,1-0.447,1-1s-0.448-1-1-1h-10c-0.552,0-1,0.447-1,1S16.948,16,17.5,16z"/>
            <path d="M42.5,30h-25c-0.552,0-1,0.447-1,1s0.448,1,1,1h25c0.552,0,1-0.447,1-1S43.052,30,42.5,30z"/>
            <path d="M42.5,38h-25c-0.552,0-1,0.447-1,1s0.448,1,1,1h25c0.552,0,1-0.447,1-1S43.052,38,42.5,38z"/>
            <path d="M42.5,46h-25c-0.552,0-1,0.447-1,1s0.448,1,1,1h25c0.552,0,1-0.447,1-1S43.052,46,42.5,46z"/>
            <path d="M38.914,0H6.5v60h47V14.586L38.914,0z M39.5,3.414L50.086,14H39.5V3.414z M8.5,58V2h29v14h14v42H8.5z"/>
        </symbol>
        <symbol id="icon-internet" viewBox="0 0 58 58">
            <title>اینترنت</title>
            <path d="M50.688,48.222C55.232,43.101,58,36.369,58,29c0-7.667-2.996-14.643-7.872-19.834c0,0,0-0.001,0-0.001
            c-0.004-0.006-0.01-0.008-0.013-0.013c-5.079-5.399-12.195-8.855-20.11-9.126l-0.001-0.001L29.439,0.01C29.293,0.005,29.147,0,29,0
            s-0.293,0.005-0.439,0.01l-0.563,0.015l-0.001,0.001c-7.915,0.271-15.031,3.727-20.11,9.126c-0.004,0.005-0.01,0.007-0.013,0.013
            c0,0,0,0.001-0.001,0.002C2.996,14.357,0,21.333,0,29c0,7.369,2.768,14.101,7.312,19.222c0.006,0.009,0.006,0.019,0.013,0.028
            c0.018,0.025,0.044,0.037,0.063,0.06c5.106,5.708,12.432,9.385,20.608,9.665l0.001,0.001l0.563,0.015C28.707,57.995,28.853,58,29,58
            s0.293-0.005,0.439-0.01l0.563-0.015l0.001-0.001c8.185-0.281,15.519-3.965,20.625-9.685c0.013-0.017,0.034-0.022,0.046-0.04
            C50.682,48.241,50.682,48.231,50.688,48.222z M2.025,30h12.003c0.113,4.239,0.941,8.358,2.415,12.217
            c-2.844,1.029-5.563,2.409-8.111,4.131C4.585,41.891,2.253,36.21,2.025,30z M8.878,11.023c2.488,1.618,5.137,2.914,7.9,3.882
            C15.086,19.012,14.15,23.44,14.028,28H2.025C2.264,21.493,4.812,15.568,8.878,11.023z M55.975,28H43.972
            c-0.122-4.56-1.058-8.988-2.75-13.095c2.763-0.968,5.412-2.264,7.9-3.882C53.188,15.568,55.736,21.493,55.975,28z M28,14.963
            c-2.891-0.082-5.729-0.513-8.471-1.283C21.556,9.522,24.418,5.769,28,2.644V14.963z M28,16.963V28H16.028
            c0.123-4.348,1.035-8.565,2.666-12.475C21.7,16.396,24.821,16.878,28,16.963z M30,16.963c3.179-0.085,6.3-0.566,9.307-1.438
            c1.631,3.91,2.543,8.127,2.666,12.475H30V16.963z M30,14.963V2.644c3.582,3.125,6.444,6.878,8.471,11.036
            C35.729,14.45,32.891,14.881,30,14.963z M40.409,13.072c-1.921-4.025-4.587-7.692-7.888-10.835
            c5.856,0.766,11.125,3.414,15.183,7.318C45.4,11.017,42.956,12.193,40.409,13.072z M17.591,13.072
            c-2.547-0.879-4.991-2.055-7.294-3.517c4.057-3.904,9.327-6.552,15.183-7.318C22.178,5.38,19.512,9.047,17.591,13.072z M16.028,30
            H28v10.038c-3.307,0.088-6.547,0.604-9.661,1.541C16.932,37.924,16.141,34.019,16.028,30z M28,42.038v13.318
            c-3.834-3.345-6.84-7.409-8.884-11.917C21.983,42.594,24.961,42.124,28,42.038z M30,55.356V42.038
            c3.039,0.085,6.017,0.556,8.884,1.4C36.84,47.947,33.834,52.011,30,55.356z M30,40.038V30h11.972
            c-0.113,4.019-0.904,7.924-2.312,11.58C36.547,40.642,33.307,40.126,30,40.038z M43.972,30h12.003
            c-0.228,6.21-2.559,11.891-6.307,16.348c-2.548-1.722-5.267-3.102-8.111-4.131C43.032,38.358,43.859,34.239,43.972,30z
            M9.691,47.846c2.366-1.572,4.885-2.836,7.517-3.781c1.945,4.36,4.737,8.333,8.271,11.698C19.328,54.958,13.823,52.078,9.691,47.846
            z M32.521,55.763c3.534-3.364,6.326-7.337,8.271-11.698c2.632,0.945,5.15,2.209,7.517,3.781
            C44.177,52.078,38.672,54.958,32.521,55.763z"/>
        </symbol>
        <symbol id="icon-phone" viewBox="0 0 15 15">
            <title>تلفن</title>
            <g id="اپلیکیشن۰۱" transform="translate(-839.000000, -845.000000)" fill="#737381" fill-rule="nonzero">
                <g id="telephone" transform="translate(846.500000, 852.500000) scale(-1, 1) translate(-846.500000, -852.500000) translate(839.000000, 845.000000)">
                    <path d="M14.6140723,11.0634668 L12.7493555,9.19875 C12.2352539,8.68467773 11.3987109,8.68467773 10.8846387,9.19875 L10.0370508,10.0463379 C9.64757813,10.4358105 9.01382813,10.4356934 8.62450195,10.0464844 L4.95067383,6.36952148 C4.56029297,5.97914063 4.56023438,5.34729492 4.95067383,4.95685547 C5.08719727,4.82033203 5.47921875,4.42831055 5.79826172,4.10926758 C6.31010742,3.59745117 6.31725586,2.76351563 5.79776367,2.24408203 L3.93354492,0.385722656 C3.41944336,-0.128349609 2.58292969,-0.128349609 2.07020508,0.384375 C1.6865332,0.764707031 1.5627832,0.887402344 1.39075195,1.05793945 C-0.463154297,2.91181641 -0.463154297,5.92831055 1.39066406,7.78212891 L7.21171875,13.6062305 C9.06996094,15.464502 12.0775781,15.4646484 13.9359668,13.6062305 L14.6140723,12.9281543 C15.1281738,12.4140527 15.1281738,11.5775684 14.6140723,11.0634668 Z M2.69041992,1.00728516 C2.86177734,0.835927734 3.14056641,0.835898437 3.31248047,1.00775391 L5.17669922,2.86611328 C5.3484668,3.03788086 5.3484668,3.31587891 5.17669922,3.48767578 L4.86588867,3.79845703 L2.3812207,1.31378906 L2.69041992,1.00728516 Z M7.83339844,12.9847559 L2.01231445,7.1605957 C0.577998047,5.7262793 0.499160156,3.47408203 1.76985352,1.94557617 L4.24731445,4.42303711 C3.59633789,5.16099609 3.6234668,6.28549805 4.32896484,6.99099609 L8.00267578,10.6677832 C8.00270508,10.6678125 8.00276367,10.6678711 8.00279297,10.6679004 C8.7075293,11.372666 9.83197266,11.4015527 10.5708398,10.7496973 L13.0483594,13.2272168 C11.5247168,14.4957129 9.27758789,14.4289453 7.83339844,12.9847559 Z M13.9925391,12.3065918 L13.6817285,12.6174023 L11.1954492,10.1310937 L11.5062012,9.8203125 C11.6775879,9.64895508 11.9564063,9.64892578 12.127793,9.8203125 L13.9925098,11.6850293 C14.1638965,11.856416 14.1638965,12.1352637 13.9925391,12.3065918 Z" id="Shape"></path>
                </g>
            </g>
        </symbol>
        <symbol id="icon-notification" viewBox="0 0 512 512">
            <title>اعلان</title>               
            <path d="M467.819,431.851l-36.651-61.056c-16.896-28.181-25.835-60.437-25.835-93.312V224
                c0-82.325-67.008-149.333-149.333-149.333S106.667,141.675,106.667,224v53.483c0,32.875-8.939,65.131-25.835,93.312
                l-36.651,61.056c-1.984,3.285-2.027,7.403-0.149,10.731c1.899,3.349,5.461,5.419,9.301,5.419h405.333
                c3.84,0,7.403-2.069,9.301-5.419C469.845,439.253,469.803,435.136,467.819,431.851z M72.171,426.667l26.944-44.907
                C118.016,350.272,128,314.219,128,277.483V224c0-70.592,57.408-128,128-128s128,57.408,128,128v53.483
                c0,36.736,9.984,72.789,28.864,104.277l26.965,44.907H72.171z"/>

            <path d="M256,0c-23.531,0-42.667,19.136-42.667,42.667v42.667C213.333,91.221,218.112,96,224,96s10.667-4.779,10.667-10.667
                V42.667c0-11.776,9.557-21.333,21.333-21.333s21.333,9.557,21.333,21.333v42.667C277.333,91.221,282.112,96,288,96
                s10.667-4.779,10.667-10.667V42.667C298.667,19.136,279.531,0,256,0z"/>

            <path d="M302.165,431.936c-3.008-5.077-9.515-6.741-14.613-3.819c-5.099,2.987-6.805,9.536-3.819,14.613
                c2.773,4.715,4.288,10.368,4.288,15.936c0,17.643-14.357,32-32,32c-17.643,0-32-14.357-32-32c0-5.568,1.515-11.221,4.288-15.936
                c2.965-5.099,1.259-11.627-3.819-14.613c-5.141-2.923-11.627-1.259-14.613,3.819c-4.715,8.064-7.211,17.301-7.211,26.731
                C202.667,488.085,226.581,512,256,512s53.333-23.915,53.376-53.333C309.376,449.237,306.88,440,302.165,431.936z"/>
        </symbol>
          <symbol id="icon-search" viewBox="0 0 17 17">
            <title>جستجو</title>
            <g transform="translate(905.000000, 126.000000)">
                <path d="M16.8511086,16.1330377 L12.7198448,12.0017738 C13.8280488,10.7277162 14.4990022,9.0654102 14.4990022,7.24855876 C14.4990022,3.24922395 11.2460089,0 7.25044346,0 C3.25110865,0 0.00188470067,3.25299335 0.00188470067,7.24855876 C0.00188470067,11.2441242 3.25487805,14.4971175 7.25044346,14.4971175 C9.0672949,14.4971175 10.7296009,13.8261641 12.0036585,12.7179601 L16.1349224,16.8492239 C16.2329268,16.9472284 16.3648559,17 16.4930155,17 C16.6211752,17 16.7531042,16.9509978 16.8511086,16.8492239 C17.0471175,16.6532151 17.0471175,16.3290466 16.8511086,16.1330377 Z M1.01585366,7.24855876 C1.01585366,3.81086475 3.81274945,1.01773836 7.24667406,1.01773836 C10.6843681,1.01773836 13.4774945,3.81463415 13.4774945,7.24855876 C13.4774945,10.6824834 10.6843681,13.4831486 7.24667406,13.4831486 C3.81274945,13.4831486 1.01585366,10.6862528 1.01585366,7.24855876 Z" id="Shape"></path>
        </symbol>
        <symbol id="icon-folder"  viewBox="0 0 60 60">
            <title>پوشه</title>
            <path d="M57.49,21.5H55v-7h-2v-4H25.086l-3.571-5H2.732C1.226,5.5,0,6.726,0,8.232v43.687l0.006,0
            c-0.005,0.563,0.17,1.114,0.522,1.575C1.018,54.134,1.76,54.5,2.565,54.5h44.759c1.156,0,2.174-0.779,2.45-1.813L60,24.649v-0.177
            C60,22.75,58.944,21.5,57.49,21.5z M53,21.5h-8v-1c0-0.553-0.448-1-1-1s-1,0.447-1,1v1h-5v-1c0-0.553-0.448-1-1-1s-1,0.447-1,1v1h-5
            v-1c0-0.553-0.448-1-1-1s-1,0.447-1,1v1h-5v-1c0-0.553-0.448-1-1-1s-1,0.447-1,1v1h-5v-1c0-0.553-0.448-1-1-1s-1,0.447-1,1v1h-2.269
            c-0.143,0-0.284,0.012-0.422,0.035c-0.499,0.083-0.95,0.315-1.309,0.639V16.5h42V21.5z M5,37.793V22.5h5.695
            c-0.188,0.243-0.335,0.516-0.414,0.813l-0.317,0.87L5,37.793z M9,20.5H6.414L7,19.914l2-2V20.5z M51,12.5v2H9.586L7,17.086V12.5
            h19.515H51z M2,8.232C2,7.828,2.329,7.5,2.732,7.5h17.753l2.143,3H5v8.586l-2,2v22.085l-1,2.728V8.232z M47.869,52.083
            c-0.066,0.245-0.291,0.417-0.545,0.417H2.565c-0.243,0-0.385-0.139-0.448-0.222c-0.063-0.082-0.16-0.256-0.123-0.408L3,49.112v0.001
            l9.16-25.114l0.026-0.082c0.066-0.245,0.291-0.417,0.545-0.417H55h2.49c0.38,0,0.477,0.546,0.502,0.819L47.869,52.083z"/>
        </symbol>
        <symbol id="icon-downloads" viewBox="0 0 512 512">
            <title>دانلود</title>     
                <path d="M382.56,233.376C379.968,227.648,374.272,224,368,224h-64V16c0-8.832-7.168-16-16-16h-64c-8.832,0-16,7.168-16,16v208h-64
                    c-6.272,0-11.968,3.68-14.56,9.376c-2.624,5.728-1.6,12.416,2.528,17.152l112,128c3.04,3.488,7.424,5.472,12.032,5.472
                    c4.608,0,8.992-2.016,12.032-5.472l112-128C384.192,245.824,385.152,239.104,382.56,233.376z"/>
                <path d="M432,352v96H80v-96H16v128c0,17.696,14.336,32,32,32h416c17.696,0,32-14.304,32-32V352H432z"/>
        </symbol>

    </defs>
</svg>
