<?xml version="1.0" encoding="utf-8"?>
<!-- Generator: Adobe Illustrator 21.0.0, SVG Export Plug-In . SVG Version: 6.00 Build 0)  -->
<svg version="1.1" id="Layer_1" xmlns="http://www.w3.org/2000/svg" xmlns:xlink="http://www.w3.org/1999/xlink" x="0px" y="0px"
	 viewBox="0 0 500 500" style="enable-background:new 0 0 500 500;" xml:space="preserve">
<style type="text/css">
	.st0{fill:#303842;}
</style>
<title>svg icon</title>
<desc>Created with Sketch.</desc>
<g id="svg-icon">
	<g id="Group" transform="translate(12.000000, 33.000000)">
		<path id="Combined-Shape" class="st0" d="M159.5,207.7c-3.3,4.3-6.2,8.1-8.2,10.9c-13.3,18.4-26.8,36.8-40.8,59.9
			C88.7,314.6,71.9,345.8,60,372c-16.1-10.9-25-20.7-26.6-29.4c-2.5-13-2.9-25.5,9.1-44.8c32.5-52.5,34.9-52.9,65.6-95.1
			c16.7-22.9,48.3-55.7,74.4-79.8c21.9-20.1,46.4-39.7,52.8-44.2c13.9-9.9,27.2-2.3,24.3,5.3s-22.4,25.3-54.1,65.5
			c-3,3.8-11.6,14.5-21.2,26.6c-4.4,7.9-5.4,12.2-3.1,12.9c4.9,1.5,12.6-0.8,20.1-3.2c16.6-5.3,108.4-46.6,149-81
			c11.9-10.1,17.1-17.2,13.9-27c-4.8-14.7-38.3-18.6-75.7-16.7c-28,1.4-48.7,4.1-66.8,7.7c-16.3,11.7-33.3,26.8-46.7,40.1
			c-7.9,7.9-28.1,25.2-60.5,51.8c-6.9,5.9-18.6,14.8-28,19.8c-12.9,6.8-22,11.5-37.9,15.5S12,196,3.2,176
			c-8.3-19,0.4-32.7,15.8-52.1c6.9-8.6,22.8-23.9,56.4-42.4c41.4-22.9,100.4-41.2,125.9-44.2c5.1-0.6,12.6-1.5,21.6-2.3
			c6-2.9,12.8-6.1,20.4-9.6c17.6-8.2,36.1-13.5,48.8-17C341.3-5.2,379.8,0.9,399,4.8C409.4,7,421.1,11,434.1,17
			c3.8,2.5,5.8,8.2,5.9,17.3c0.1,9-2.8,15.6-8.7,19.7c-11.3-8.5-22-15-32.3-19.7c-15.4-7-30.9-9.6-40.9-10.5
			c-7.8-0.7-27.5-0.5-37.4,1.5c-8.5,1.7-16,3.7-25.1,7c19.5,0.9,37.8,3.5,50.7,9.3c36.9,16.7,43.2,38.7,39.6,57.7
			s-15.3,40-39.6,56.4c-18.8,12.7-29.2,19.9-53.9,34.3c-22.7,13.3-50.4,24.8-52,28.2s26.5,40.6,76.2,80.3s59.1,44.8,75.5,44.8
			c16.3,0,30.6-6.7,31.6-23.1c0.5-9.3-9-24.3-31.6-23.8c-17.2,0.4-44.6,13.6-62.6,26.5c-23.7,17-57.9,47-92.8,76.1
			c-41.6,34.7-64.6,38.4-101.2,32.6c-34.1-5.4-50.3-30.2-54.3-37.7c-8.8-16.5,28.4-63.2,28.1-63.6c-0.7-0.9,26.4,48.4,65.4,54.1
			c16.9,2.5,26.7,0,41.5-11.7c44.3-35.1,52.2-49.1,89.6-80.4s84.3-39.9,100.7-39.9c31.5,0,49.8,19.3,58.1,30.3
			c4.2,5.6,11.1,18.1,12.5,28.5c1.3,10.2-0.2,19.1-2.3,29.6c-2.1,10.5-8.9,26.1-18.2,36.8c-5.8,6.7-18.5,15.8-35.4,21.4
			c-14.6,4.8-33.5,7.3-53.8,5.3s-43.5-12.8-72.3-34.9C245.8,331.7,185.6,261.7,159.5,207.7z M85.6,139.1c4.8-4,35.4-26.1,62.4-49.3
			c-60.5,21-83.2,39.9-96.2,48.6c-14.8,9.8-9.8,19.4,1.9,17.4C64.4,154,78.2,144.6,85.6,139.1z"/>
	</g>
</g>
</svg>
