<?xml version="1.0" encoding="UTF-8"?>
<svg width="15px" height="15px" viewBox="0 0 15 15" version="1.1" xmlns="http://www.w3.org/2000/svg" xmlns:xlink="http://www.w3.org/1999/xlink">
    <!-- Generator: Sketch 54.1 (76490) - https://sketchapp.com -->
    <title>telephone</title>
    <desc>Created with Sketch.</desc>
    <g id="Page-2" stroke="none" stroke-width="1" fill="none" fill-rule="evenodd">
        <g id="اپلیکیشن۰۱" transform="translate(-839.000000, -845.000000)" fill="#737381" fill-rule="nonzero">
            <g id="telephone" transform="translate(846.500000, 852.500000) scale(-1, 1) translate(-846.500000, -852.500000) translate(839.000000, 845.000000)">
                <path d="M14.6140723,11.0634668 L12.7493555,9.19875 C12.2352539,8.68467773 11.3987109,8.68467773 10.8846387,9.19875 L10.0370508,10.0463379 C9.64757813,10.4358105 9.01382813,10.4356934 8.62450195,10.0464844 L4.95067383,6.36952148 C4.56029297,5.97914063 4.56023438,5.34729492 4.95067383,4.95685547 C5.08719727,4.82033203 5.47921875,4.42831055 5.79826172,4.10926758 C6.31010742,3.59745117 6.31725586,2.76351563 5.79776367,2.24408203 L3.93354492,0.385722656 C3.41944336,-0.128349609 2.58292969,-0.128349609 2.07020508,0.384375 C1.6865332,0.764707031 1.5627832,0.887402344 1.39075195,1.05793945 C-0.463154297,2.91181641 -0.463154297,5.92831055 1.39066406,7.78212891 L7.21171875,13.6062305 C9.06996094,15.464502 12.0775781,15.4646484 13.9359668,13.6062305 L14.6140723,12.9281543 C15.1281738,12.4140527 15.1281738,11.5775684 14.6140723,11.0634668 Z M2.69041992,1.00728516 C2.86177734,0.835927734 3.14056641,0.835898437 3.31248047,1.00775391 L5.17669922,2.86611328 C5.3484668,3.03788086 5.3484668,3.31587891 5.17669922,3.48767578 L4.86588867,3.79845703 L2.3812207,1.31378906 L2.69041992,1.00728516 Z M7.83339844,12.9847559 L2.01231445,7.1605957 C0.577998047,5.7262793 0.499160156,3.47408203 1.76985352,1.94557617 L4.24731445,4.42303711 C3.59633789,5.16099609 3.6234668,6.28549805 4.32896484,6.99099609 L8.00267578,10.6677832 C8.00270508,10.6678125 8.00276367,10.6678711 8.00279297,10.6679004 C8.7075293,11.372666 9.83197266,11.4015527 10.5708398,10.7496973 L13.0483594,13.2272168 C11.5247168,14.4957129 9.27758789,14.4289453 7.83339844,12.9847559 Z M13.9925391,12.3065918 L13.6817285,12.6174023 L11.1954492,10.1310937 L11.5062012,9.8203125 C11.6775879,9.64895508 11.9564063,9.64892578 12.127793,9.8203125 L13.9925098,11.6850293 C14.1638965,11.856416 14.1638965,12.1352637 13.9925391,12.3065918 Z" id="Shape"></path>
            </g>
        </g>
    </g>
</svg>