<?xml version="1.0" encoding="utf-8"?>
<!-- Generator: Adobe Illustrator 21.0.0, SVG Export Plug-In . SVG Version: 6.00 Build 0)  -->
<svg version="1.1" id="Layer_1" xmlns="http://www.w3.org/2000/svg" xmlns:xlink="http://www.w3.org/1999/xlink" x="0px" y="0px"
	 viewBox="0 0 490 490" style="enable-background:new 0 0 490 490;" xml:space="preserve">
<style type="text/css">
	.st0{fill:#3C92CA;}
	.st1{fill:#6D7A8C;}
</style>
<g>
	<g>
		<g>
			<path class="st0" d="M245.1,393.3c19.5,0,38.5-3.8,56.6-11.3c36.6-15.1,65-43.6,80.2-80.2s15.2-76.8,0-113.4
				c-23-55.6-76.8-91.5-137-91.5c-19.5,0-38.5,3.8-56.6,11.3c-75.5,31.2-111.5,118.1-80.2,193.6
				C131.1,357.3,184.9,393.3,245.1,393.3z M195.9,126.5c15.7-6.5,32.2-9.8,49-9.8c52.1,0,98.7,31.1,118.7,79.3
				c13.1,31.7,13.1,66.6,0,98.2c-13.1,31.7-37.8,56.3-69.5,69.5c-15.7,6.5-32.2,9.8-49,9.8c-52.1,0-98.7-31.1-118.7-79.3
				C99.3,228.8,130.5,153.5,195.9,126.5z"/>
			<path class="st1" d="M14.4,328c1.5,4,5.3,6.6,9.3,6.6c1.1,0,2.2-0.2,3.3-0.6c5.1-1.8,7.8-7.5,6-12.7
				C3.7,239.4,23.2,149.9,84,87.7c42-43,98.3-67.1,158.4-67.8c60-0.7,116.9,22,159.9,64L377,84.2c-5.5,0.1-9.8,4.5-9.8,10
				c0.1,5.4,4.5,9.8,9.9,9.8h0.1l49.2-0.6c2.6,0,5.1-1.1,7-3c1.8-1.9,2.8-4.4,2.8-7l-0.6-49.2c-0.1-5.5-4.5-10-10-9.8
				c-5.5,0.1-9.8,4.5-9.8,10l0.3,25.3C369.3,24,307.6-0.7,242.2,0C176.8,0.9,115.5,27,69.8,73.8c-32.7,33.5-55.1,75.4-64.6,121
				C-4.1,239.3-0.9,285.3,14.4,328z"/>
		</g>
		<path class="st1" d="M406,402.4c-86.7,88.8-229.5,90.4-318.3,3.8l25.3-0.3c5.5-0.1,9.8-4.5,9.8-10c-0.1-5.4-4.5-9.8-9.9-9.8h-0.1
			l-49.2,0.6c-5.5,0.1-9.8,4.5-9.8,10l0.6,49.2c0.1,5.4,4.5,9.8,9.9,9.8h0.1c5.5-0.1,9.8-4.5,9.8-10l-0.3-25.3
			C121.5,466.8,183.2,490,245,490c63.7,0,127.3-24.6,175.2-73.6c32.7-33.5,55.1-75.4,64.6-121c9.3-44.4,6.1-90.5-9.2-133.1
			c-1.8-5.1-7.5-7.8-12.7-6c-5.1,1.8-7.8,7.5-6,12.7C486.3,250.7,466.8,340.2,406,402.4z"/>
	</g>
</g>
</svg>
